<?xml version="1.0"?>
<svg width="400" height="200" xmlns="http://www.w3.org/2000/svg" xmlns:svg="http://www.w3.org/2000/svg">
 <!-- Created with SVG-edit - https://github.com/SVG-Edit/svgedit-->
 <g class="layer">
  <title>Layer 1</title>
  <text fill="#000000" font-family="Fantasy" font-size="24" id="svg_1" stroke="#000000" stroke-width="0" text-anchor="middle" transform="matrix(6.69578 0 0 6.43868 -381.71 -241.343)" x="81.702481" xml:space="preserve" y="62.965883">JARV</text>
  <path d="m358.778183,120.732869l-2.009669,-7.03384c0.588952,-0.516624 1.14174,-1.069412 1.66353,-1.660947l7.028674,2.009669c0.741356,-1.079745 1.379387,-2.226651 1.950257,-3.41747l-5.230821,-5.062918c0.250563,-0.743939 0.467545,-1.500794 0.622532,-2.280896l7.049339,-1.766855c0.051662,-0.650947 0.100742,-1.304476 0.100742,-1.970922s-0.051662,-1.317392 -0.100742,-1.968339l-7.049339,-1.766855c-0.15757,-0.780103 -0.374553,-1.536957 -0.622532,-2.280896l5.233404,-5.062918c-0.573453,-1.188236 -1.211484,-2.337725 -1.95284,-3.41747l-7.028674,2.007086c-0.519207,-0.588952 -1.074579,-1.14174 -1.66353,-1.660947l2.009669,-7.031257c-1.079745,-0.738773 -2.229234,-1.379387 -3.420053,-1.950257l-5.062918,5.233404c-0.741356,-0.250563 -1.500794,-0.464962 -2.280896,-0.622532l-1.764272,-7.051922c-0.65353,-0.049079 -1.304476,-0.100742 -1.970922,-0.100742s-1.317392,0.051662 -1.968339,0.100742l-1.766855,7.051922c-0.780103,0.15757 -1.536957,0.37197 -2.280896,0.622532l-5.062918,-5.233404c-1.188236,0.578619 -2.335142,1.21665 -3.414887,1.958006l2.009669,7.031257c-0.588952,0.516624 -1.144323,1.071995 -1.660947,1.658364l-7.031257,-2.009669c-0.741356,1.079745 -1.379387,2.229234 -1.950257,3.420053l5.233404,5.062918c-0.24798,0.743939 -0.464962,1.500794 -0.622532,2.280896l-7.051922,1.766855c-0.049079,0.650947 -0.100742,1.304476 -0.100742,1.968339s0.051662,1.317392 0.100742,1.970922l7.051922,1.766855c0.15757,0.780103 0.374553,1.536957 0.622532,2.280896l-5.233404,5.062918c0.57087,1.188236 1.208901,2.337725 1.950257,3.41747l7.031257,-2.009669c0.516624,0.591535 1.071995,1.14174 1.660947,1.660947l-2.009669,7.03384c1.079745,0.738773 2.229234,1.376804 3.41747,1.950257l5.062918,-5.233404c0.743939,0.250563 1.500794,0.467545 2.280896,0.622532l1.766855,7.049339c0.650947,0.051662 1.304476,0.100742 1.970922,0.100742s1.317392,-0.051662 1.970922,-0.100742l1.764272,-7.049339c0.780103,-0.15757 1.539541,-0.374553 2.280896,-0.622532l5.062918,5.233404c1.185653,-0.578619 2.335142,-1.21665 3.414887,-1.955423zm-14.496479,-12.401567c-4.848519,0 -8.780031,-3.931511 -8.780031,-8.780031s3.931511,-8.777447 8.780031,-8.777447s8.777447,3.928928 8.777447,8.777447s-3.928928,8.780031 -8.777447,8.780031zm40.017721,18.353079c0.049079,-1.412968 -0.154987,-2.851766 -0.594118,-4.272483l3.213403,-4.579875c-0.485627,-0.904093 -1.033249,-1.761689 -1.655781,-2.541792l-5.481384,1.149489c-1.105576,-0.940256 -2.363556,-1.673863 -3.709363,-2.198237l-1.578287,-5.37031c-0.997085,-0.175652 -2.007086,-0.271228 -3.030002,-0.273811l-2.51596,5.000924c-0.720691,0.139489 -1.441382,0.33064 -2.149157,0.601867c-0.663862,0.253146 -1.283811,0.568287 -1.877929,0.911842l-5.181742,-2.115577c-0.767187,0.676778 -1.467213,1.407801 -2.100078,2.20082l2.342891,5.083583c-0.669029,1.278645 -1.128824,2.655449 -1.34064,4.094248l-4.884683,2.738109c0.049079,1.002251 0.196317,2.004502 0.423632,3.009337l5.434888,1.34064c0.596701,1.353556 1.397469,2.56504 2.366139,3.598288l-0.909259,5.522714c0.826599,0.594118 1.70486,1.105576 2.616702,1.549873l4.430054,-3.409721c1.384553,0.36422 2.833684,0.503709 4.293148,0.387468l3.750693,4.151077c0.516624,-0.147238 1.030666,-0.304808 1.539541,-0.498542c0.452046,-0.170486 0.878261,-0.37197 1.304476,-0.576036l0.095576,-5.592458c1.17532,-0.875678 2.177572,-1.929592 2.975756,-3.115245l5.582126,-0.346138c0.392634,-0.927341 0.720691,-1.890845 0.950589,-2.880181l-4.31123,-3.569874zm-10.753535,5.184325c-3.102329,1.18307 -6.574045,-0.37197 -7.759697,-3.474299s0.369386,-6.576628 3.471716,-7.762281c3.102329,-1.18307 6.579211,0.37197 7.764864,3.474299c1.18307,3.102329 -0.374553,6.576628 -3.476882,7.762281z" fill="#000000" id="svg_9" stroke="#000000" stroke-width="5"/>
 </g>
</svg>